<?xml version="1.0" encoding="UTF-8"?>
<svg version="1.1" viewBox="0 0 24 24" xmlns="http://www.w3.org/2000/svg"><rect width="24" height="24" fill="#303f9f"/><path d="m12 3.2051c-2.2539-3.452e-4 -4.5081 0.85775-6.2227 2.5723-3.429 3.429-3.429 9.0163 0 12.445 3.429 3.429 9.0163 3.429 12.445 0 2.7911-2.7911 3.3091-7.0113 1.5566-10.334l-1.0527 2.1406c0.69734 2.3755 0.10678 5.0436-1.7734 6.9238-2.7431 2.7431-7.1632 2.7431-9.9062 0s-2.7431-7.1632 0-9.9062c1.8793-1.8793 4.5449-2.4695 6.9199-1.7734l2.1426-1.0547c-1.2811-0.67527-2.695-1.0135-4.1094-1.0137z" fill="#fff"/><path d="m6.8379 11.362 11.409-5.6096-5.6096 11.409z" fill="#fff"/></svg>
